<?xml version="1.0" standalone="no"?>
<!DOCTYPE svg PUBLIC "-//W3C//DTD SVG 20010904//EN"
 "http://www.w3.org/TR/2001/REC-SVG-20010904/DTD/svg10.dtd">
<svg version="1.0" xmlns="http://www.w3.org/2000/svg"
 width="170px" height="120px" viewBox="0 0 1500.000000 1500.000000"
 preserveAspectRatio="xMidYMid meet">
<metadata>
Created by potrace 1.14, written by Peter Selinger 2001-2017
</metadata>
<g transform="translate(0.000000,1200.000000) scale(0.100000,-0.100000)"
fill="#ababab" stroke="none">
<path d="M7321 10048 c-74 -10 -96 -21 -174 -83 -81 -64 -178 -191 -243 -318
-299 -584 -212 -1452 186 -1857 95 -96 139 -120 244 -136 116 -18 216 -18 332
0 105 16 149 40 244 136 252 257 391 718 359 1196 -16 241 -67 441 -164 640
-85 174 -206 322 -320 389 -69 41 -297 57 -464 33z"/>
<path d="M8170 9855 c0 -3 11 -22 24 -43 112 -178 204 -454 236 -712 15 -122
12 -391 -5 -522 -33 -252 -122 -517 -231 -690 -13 -21 -22 -38 -18 -38 15 0
128 96 200 172 94 98 145 170 206 293 163 325 169 703 17 1043 -45 99 -147
247 -230 333 -68 69 -199 178 -199 164z"/>
<path d="M6755 9803 c-450 -350 -593 -979 -337 -1488 61 -123 112 -195 206
-293 72 -75 185 -172 200 -172 3 0 -8 22 -24 49 -86 139 -161 341 -206 553
-31 150 -44 471 -25 634 31 266 122 543 237 726 13 21 21 38 17 38 -5 0 -35
-21 -68 -47z"/>
<path d="M5495 9618 c-117 -41 -172 -183 -114 -289 16 -28 71 -83 157 -156 73
-62 128 -113 124 -113 -5 0 -103 14 -218 31 -238 35 -332 35 -426 -1 -121 -45
-188 -154 -174 -282 14 -138 104 -221 272 -249 62 -11 89 -9 244 13 96 15 176
25 178 23 1 -1 -38 -47 -88 -101 -49 -55 -97 -113 -105 -131 -23 -49 -19 -121
11 -181 62 -125 217 -143 394 -45 63 35 326 199 343 213 5 4 -5 63 -22 131
-66 269 -67 488 -4 729 14 52 27 105 30 117 4 18 -14 34 -128 110 -74 49 -161
105 -194 125 -102 61 -206 82 -280 56z"/>
<path d="M9327 9610 c-64 -23 -138 -66 -310 -183 -99 -67 -118 -83 -114 -101
2 -12 16 -64 30 -116 64 -242 62 -487 -8 -748 -14 -52 -25 -97 -25 -101 0 -8
255 -170 360 -229 165 -93 323 -72 384 50 30 60 34 132 11 182 -9 18 -56 77
-106 131 -49 54 -88 99 -87 101 2 1 77 -9 168 -23 184 -27 255 -26 347 9 105
39 168 119 179 226 14 128 -52 235 -174 283 -83 33 -234 32 -460 -4 -96 -16
-176 -26 -179 -24 -2 3 50 50 116 106 66 56 132 116 145 134 72 95 36 251 -71
302 -56 28 -137 29 -206 5z"/>
<path d="M4430 7745 l0 -75 105 0 105 0 0 75 0 75 -105 0 -105 0 0 -75z"/>
<path d="M10360 7745 l0 -75 105 0 105 0 0 75 0 75 -105 0 -105 0 0 -75z"/>
<path d="M2570 7219 c-73 -29 -83 -101 -19 -134 24 -13 650 -15 4949 -15 4381
0 4924 2 4950 15 50 26 54 84 7 119 l-28 21 -4917 2 c-3229 1 -4926 -2 -4942
-8z"/>
<path d="M8910 6635 c-26 -31 -64 -38 -250 -45 -202 -8 -228 -14 -310 -62 -70
-43 -125 -115 -152 -202 -18 -61 -20 -85 -15 -225 4 -122 10 -177 30 -252 87
-334 313 -542 611 -565 81 -7 83 -6 104 21 35 44 29 52 -41 57 -182 15 -347
176 -427 418 -52 159 -65 442 -25 570 21 68 82 133 140 149 147 41 237 -28
284 -214 21 -83 21 -83 43 -42 30 58 48 160 48 273 0 111 -13 151 -40 119z"/>
<path d="M4145 6606 c-52 -23 -69 -51 -68 -110 2 -93 61 -177 125 -179 47 -1
83 26 113 86 47 94 24 185 -52 206 -50 14 -81 13 -118 -3z"/>
<path d="M2540 6586 c0 -3 9 -20 20 -39 52 -87 192 -598 255 -929 26 -136 31
-268 11 -310 -8 -17 2 -18 139 -18 135 0 146 1 141 18 -14 49 -17 95 -7 148
27 149 155 704 162 697 8 -9 110 -446 135 -578 20 -108 23 -231 6 -262 l-13
-23 146 0 147 0 -7 32 c-4 18 -7 56 -6 84 1 72 170 872 207 989 22 66 61 145
87 173 l20 22 -147 0 -147 0 23 -31 c31 -42 29 -134 -7 -344 -30 -179 -122
-635 -128 -642 -6 -5 -8 4 -82 346 -101 470 -110 542 -80 626 8 22 15 41 15
43 0 1 -70 2 -154 2 l-155 0 15 -35 c24 -58 19 -199 -15 -395 -30 -172 -110
-572 -116 -578 -5 -5 -9 12 -69 278 -98 438 -122 577 -113 671 l5 59 -144 0
c-79 0 -144 -2 -144 -4z"/>
<path d="M4520 6585 c0 -3 11 -22 24 -43 50 -76 51 -92 50 -622 0 -403 -3
-508 -15 -562 l-16 -68 125 0 c124 0 124 0 118 23 -21 79 -28 293 -22 697 5
392 11 498 31 560 6 19 1 20 -144 20 -83 0 -151 -2 -151 -5z"/>
<path d="M5000 6584 c0 -3 9 -19 20 -34 55 -77 61 -140 61 -590 0 -347 -11
-572 -30 -637 l-10 -33 126 0 c125 0 125 0 119 23 -21 79 -28 293 -22 697 5
392 11 498 31 560 6 19 1 20 -144 20 -83 0 -151 -3 -151 -6z"/>
<path d="M6410 6584 c0 -3 7 -32 15 -63 20 -78 45 -278 45 -362 l0 -69 60 0
60 0 0 48 c0 74 28 308 45 372 8 32 15 63 15 69 0 7 -39 11 -120 11 -66 0
-120 -3 -120 -6z"/>
<path d="M11337 6522 c34 -66 34 -71 40 -218 l6 -151 -63 -11 c-206 -37 -364
-204 -406 -432 -39 -209 13 -361 144 -416 92 -39 238 -25 323 31 40 26 49 24
49 -12 0 -23 1 -23 110 -23 l109 0 -29 48 c-49 78 -53 119 -52 602 0 401 8
583 28 635 5 13 -14 15 -144 15 l-150 0 35 -68z m50 -734 c-5 -301 -13 -345
-72 -397 -29 -25 -45 -31 -81 -31 -52 0 -84 27 -106 88 -17 49 -16 252 1 322
21 85 67 175 116 224 45 44 122 81 139 66 4 -5 6 -127 3 -272z"/>
<path d="M7380 6175 c-19 -11 -58 -14 -165 -13 -168 3 -223 -12 -290 -76 -93
-89 -82 -231 24 -334 21 -20 92 -68 156 -107 155 -93 189 -135 169 -207 -12
-42 -53 -70 -111 -75 -39 -4 -55 0 -82 19 -56 38 -93 91 -98 142 -4 32 -10 46
-21 46 -27 0 -109 -92 -123 -138 -12 -42 -12 -43 21 -77 57 -59 119 -79 245
-79 133 -1 192 16 261 77 57 50 83 105 84 175 0 107 -47 164 -223 266 -138 80
-187 128 -187 184 0 57 34 85 109 90 100 7 152 -35 186 -154 l22 -76 20 28
c43 60 68 222 47 302 -7 26 -11 26 -44 7z"/>
<path d="M9357 6160 c-27 -5 -79 -18 -117 -29 -37 -12 -77 -21 -88 -21 -15 0
-21 -9 -26 -46 -14 -104 0 -176 42 -221 l25 -27 20 55 c26 70 78 148 118 178
20 15 52 26 80 29 43 4 51 1 77 -25 23 -23 32 -44 41 -100 7 -39 11 -86 9
-104 l-3 -34 -70 -6 c-174 -16 -311 -93 -366 -206 -47 -97 -22 -230 53 -286
97 -73 263 -58 378 33 l39 31 12 -45 11 -46 121 0 120 0 -36 35 c-20 19 -41
52 -47 73 -7 20 -15 154 -20 297 -4 143 -12 275 -18 292 -17 53 -53 110 -83
132 -57 43 -165 59 -272 41z m181 -532 c-4 -113 -17 -148 -72 -206 -41 -45
-77 -62 -125 -62 -56 0 -81 33 -81 109 0 109 72 204 184 243 28 9 62 17 75 18
23 0 23 0 19 -102z"/>
<path d="M10390 6156 c-61 -16 -112 -48 -156 -99 l-36 -42 6 53 c4 29 9 59 12
67 5 13 -15 15 -140 15 l-146 0 29 -52 c46 -83 55 -148 54 -388 -1 -191 -10
-321 -29 -396 l-6 -24 122 0 c111 0 121 1 116 18 -14 44 -26 176 -32 344 -7
177 -6 185 16 228 44 89 110 140 178 140 54 0 88 -29 107 -92 25 -85 19 -415
-11 -595 l-7 -43 122 0 c66 0 121 3 121 8 0 4 -5 25 -11 47 -6 22 -14 173 -18
335 -10 331 -15 361 -80 428 -26 26 -53 43 -84 50 -55 14 -69 14 -127 -2z"/>
<path d="M4032 6143 c2 -5 15 -31 30 -59 15 -29 32 -80 38 -115 20 -125 11
-503 -16 -644 l-6 -35 122 0 122 0 -7 38 c-19 98 -24 185 -24 392 0 207 5 294
24 393 l7 37 -147 0 c-81 0 -145 -3 -143 -7z"/>
<path d="M5460 6147 c0 -1 10 -30 21 -62 20 -53 23 -90 29 -335 8 -297 15
-341 66 -407 77 -101 246 -93 354 18 l42 43 -7 -59 c-10 -84 -40 -196 -65
-245 -26 -50 -85 -117 -111 -125 -25 -8 -24 -21 6 -51 l25 -25 52 27 c71 36
156 125 195 204 71 144 89 270 92 615 0 116 4 254 7 308 l7 97 -123 0 c-122 0
-122 0 -116 -22 4 -13 14 -48 22 -78 11 -39 17 -120 21 -277 6 -217 5 -222
-17 -258 -35 -57 -94 -95 -147 -95 -61 0 -78 12 -100 67 -15 41 -18 78 -18
268 0 121 3 259 8 308 l7 87 -125 0 c-69 0 -125 -1 -125 -3z"/>
<path d="M11750 6145 c0 -4 7 -19 15 -36 28 -53 36 -131 43 -399 7 -265 7
-265 36 -323 40 -83 87 -112 180 -112 60 0 80 5 124 30 29 16 67 45 84 64 l31
35 -7 -64 c-18 -161 -63 -267 -142 -338 l-54 -49 25 -27 25 -27 60 32 c79 42
153 122 195 211 69 146 81 239 89 663 3 165 9 310 12 323 6 22 6 22 -120 22
-69 0 -126 -1 -126 -2 0 -2 10 -32 22 -68 18 -56 22 -95 26 -287 2 -123 1
-234 -2 -248 -8 -32 -61 -92 -97 -111 -44 -22 -112 -18 -136 9 -42 46 -48 88
-46 337 2 129 6 265 11 303 l8 67 -128 0 c-70 0 -128 -2 -128 -5z"/>
</g>
</svg>
